<svg t="1766121841954" class="icon" viewBox="0 0 1024 1024" version="1.1" xmlns="http://www.w3.org/2000/svg" p-id="11061" width="30" height="30"><path d="M310.4 151.808c-16.085333 9.301333-32.981333 34.816-34.986667 90.624a48 48 0 0 1-95.914666-3.413333c2.432-68.309333 24.064-136.362667 82.901333-170.325334 59.008-34.048 128.938667-18.56 189.482667 13.653334a48 48 0 1 1-45.184 84.778666c-49.493333-26.453333-80.213333-24.576-96.298667-15.317333z m257.322667 83.157333a48 48 0 0 1 67.584 6.4 1056 1056 0 0 1 100.48 145.152c66.56 115.285333 107.605333 233.429333 118.656 332.501334 5.546667 49.493333 3.84 96.597333-7.68 136.96-11.690667 40.661333-34.346667 77.44-72.362667 99.413333-46.037333 26.538667-99.2 22.826667-147.797333 5.12-48.768-17.792-98.986667-51.413333-146.858667-95.104a48 48 0 0 1 64.682667-70.912c42.24 38.528 81.877333 63.744 115.029333 75.776 33.408 12.16 54.4 9.258667 66.944 1.962667 10.496-6.058667 21.12-18.432 28.032-42.666667 7.04-24.576 9.258667-58.24 4.608-99.84-9.301333-83.157333-44.8-188.586667-106.453333-295.253333a960.042667 960.042667 0 0 0-91.178667-131.754667 48.298667 48.298667 0 0 1 6.314667-67.754667z" p-id="11062" fill="#ffffff"></path><path d="M928 525.184c0-18.56-13.696-46.037333-61.013333-75.52a48.042667 48.042667 0 0 1 50.901333-81.493333C975.872 404.48 1024 457.216 1024 525.226667c0 68.096-48.384 120.96-106.624 157.226666a48 48 0 0 1-50.773333-81.450666c47.616-29.696 61.397333-57.216 61.397333-75.776z m-200.789333 181.248a48 48 0 0 1-39.253334 55.381333A1062.272 1062.272 0 0 1 512 776.106667c-133.12 0-256-23.509333-347.306667-63.530667-45.653333-19.882667-85.504-44.928-114.688-75.093333C20.48 607.146667 0 568.96 0 525.141333c0-53.12 29.824-97.28 69.418667-130.56 39.850667-33.365333 94.08-60.032 155.861333-79.616a48 48 0 0 1 29.056 91.52c-54.4 17.28-96.128 38.954667-123.136 61.696-27.264 22.784-35.2 42.410667-35.2 56.96 0 12.16 5.418667 27.52 22.954667 45.653334 17.792 18.346667 45.866667 37.12 84.181333 53.845333 76.586667 33.536 185.728 55.466667 308.864 55.466667 56.661333 0 110.506667-4.650667 159.872-13.013334a48 48 0 0 1 55.338667 39.296z" p-id="11063" fill="#ffffff"></path><path d="M311.808 872.32c16 9.301333 46.634667 11.136 95.914667-15.018667a48 48 0 1 1 45.056 84.778667c-60.416 32.085333-130.133333 47.36-189.013334 13.44-58.965333-34.133333-80.64-102.4-82.858666-171.008a48 48 0 0 1 95.957333-3.2c1.92 56.021333 18.773333 81.749333 34.944 91.008z m-56.576-264.533333a48 48 0 0 1-28.288-61.653334 1050.752 1050.752 0 0 1 75.52-159.573333c66.56-115.328 148.352-209.92 228.608-269.056 40.064-29.525333 81.664-51.584 122.453333-61.781333 40.96-10.24 84.266667-9.002667 122.197334 12.928 46.08 26.581333 69.376 74.453333 78.336 125.44 9.045333 51.157333 4.992 111.445333-8.96 174.72a48 48 0 1 1-93.696-20.522667c12.245333-55.808 14.293333-102.784 8.106666-137.6-6.101333-34.944-19.2-51.626667-31.701333-58.88-10.496-6.101333-26.581333-9.088-51.029333-2.944-24.832 6.186667-55.04 21.12-88.746667 45.952-67.328 49.536-140.928 133.12-202.453333 239.744a960 960 0 0 0-68.693334 144.981333c-9.173333 24.832-36.821333 37.504-61.653333 28.288z" p-id="11064" fill="#ffffff"></path><path d="M605.44 516.224q0 4.266667-0.426667 8.533333t-1.28 8.448q-0.810667 4.181333-2.048 8.277334-1.28 4.096-2.858666 8.064-1.664 3.925333-3.669334 7.68-2.005333 3.797333-4.394666 7.338666-2.389333 3.584-5.12 6.869334-2.688 3.328-5.717334 6.314666-2.986667 3.029333-6.314666 5.76-3.285333 2.730667-6.826667 5.12-3.584 2.346667-7.338667 4.352-3.797333 2.005333-7.722666 3.669334-3.968 1.621333-8.064 2.858666-4.096 1.28-8.277334 2.090667-4.181333 0.853333-8.448 1.28-4.266667 0.384-8.533333 0.384t-8.533333-0.426667q-4.266667-0.426667-8.448-1.28-4.181333-0.810667-8.277334-2.048t-8.064-2.858666q-3.925333-1.664-7.68-3.669334-3.84-2.005333-7.338666-4.394666-3.584-2.346667-6.869334-5.12-3.328-2.688-6.357333-5.717334-2.986667-2.986667-5.717333-6.314666-2.730667-3.285333-5.12-6.826667-2.346667-3.584-4.352-7.338667-2.005333-3.797333-3.669334-7.722666-1.621333-3.968-2.858666-8.064-1.28-4.096-2.090667-8.277334-0.853333-4.181333-1.28-8.448-0.426667-4.266667-0.426667-8.533333t0.426667-8.533333q0.426667-4.266667 1.28-8.448 0.853333-4.181333 2.090667-8.277334t2.858666-8.064q1.664-3.925333 3.669334-7.68 2.005333-3.797333 4.394666-7.338666 2.346667-3.584 5.077334-6.869334 2.730667-3.328 5.717333-6.357333 3.029333-2.986667 6.357333-5.717333 3.285333-2.730667 6.826667-5.12 3.584-2.346667 7.338667-4.352 3.797333-2.005333 7.722666-3.669334 3.968-1.621333 8.064-2.858666 4.096-1.28 8.277334-2.090667 4.181333-0.853333 8.448-1.28 4.266667-0.384 8.533333-0.384t8.533333 0.426667q4.266667 0.426667 8.448 1.28 4.181333 0.810667 8.277334 2.048t8.064 2.858666q3.925333 1.664 7.68 3.669334 3.797333 2.005333 7.338666 4.394666 3.584 2.346667 6.869334 5.077334t6.314666 5.717333q3.029333 3.029333 5.76 6.357333 2.688 3.285333 5.12 6.826667 2.346667 3.584 4.352 7.338667 2.005333 3.797333 3.669334 7.722666 1.621333 3.968 2.858666 8.064 1.28 4.096 2.090667 8.277334 0.853333 4.181333 1.237333 8.448 0.426667 4.266667 0.426667 8.533333z" p-id="11065" fill="#ffffff"></path></svg>